# xmcd CD database file
#
# Track frame offsets:
#	150
#	13347
#	26567
#	41137
#	55680
#	66952
#	81035
#	94455
#	110002
#	121482
#	136687
#	149025
#	161832
#	176100
#
# Disc length: 2533 seconds
#
# Revision: 0
# Processed by: cddbd v1.5.2PL0 Copyright (c) Steve Scherf et al.
# Submitted via: CDex 1.51
#
DISCID=d009e30e
DTITLE=?????? ????????? - ??? 1 ???????????
DYEAR=1900
DGENRE=Luk Thung (Vintage)
TTITLE0=???????????
TTITLE1=????????????
TTITLE2=????????????
TTITLE3=?????????????
TTITLE4=??????????
TTITLE5=???????
TTITLE6=?????????????
TTITLE7=?????????????
TTITLE8=????????
TTITLE9=?????????
TTITLE10=???????
TTITLE11=??????????
TTITLE12=??????????????????
TTITLE13=??????????
EXTD=
EXTT0=
EXTT1=
EXTT2=
EXTT3=
EXTT4=
EXTT5=
EXTT6=
EXTT7=
EXTT8=
EXTT9=
EXTT10=
EXTT11=
EXTT12=
EXTT13=
PLAYORDER=
